<?xml version="1.0" encoding="utf-8"?>
<!-- Generator: Adobe Illustrator 19.1.0, SVG Export Plug-In . SVG Version: 6.00 Build 0)  -->
<svg version="1.1" id="Laag_1" xmlns="http://www.w3.org/2000/svg" xmlns:xlink="http://www.w3.org/1999/xlink" x="0px" y="0px"
	 viewBox="0 0 200 200" style="enable-background:new 0 0 200 200;" xml:space="preserve">
<style type="text/css">
	.st0{fill:#f9f9fb;}
</style>
<path class="st0" d="M105.6,8.5l26.1,52.8c0.9,1.8,2.7,3.1,4.7,3.4l58.3,8.5c5.1,0.7,7.2,7,3.5,10.7l-42.2,41.1
	c-1.5,1.4-2.1,3.5-1.8,5.5l10,58c0.9,5.1-4.5,9-9.1,6.6l-52.1-27.4c-1.8-1-4-1-5.8,0L45,195.1c-4.6,2.4-9.9-1.5-9.1-6.6l10-58
	c0.3-2-0.3-4.1-1.8-5.5L1.9,83.8c-3.7-3.6-1.7-9.9,3.5-10.7l58.3-8.5c2-0.3,3.8-1.6,4.7-3.4L94.4,8.5C96.7,3.8,103.3,3.8,105.6,8.5z
	"/>
</svg>
