<?xml version="1.0" encoding="utf-8"?>
<!-- Generator: Adobe Illustrator 19.1.0, SVG Export Plug-In . SVG Version: 6.00 Build 0)  -->
<svg version="1.1" id="Laag_1" xmlns="http://www.w3.org/2000/svg" xmlns:xlink="http://www.w3.org/1999/xlink" x="0px" y="0px"
	 viewBox="0 0 50 12" style="enable-background:new 0 0 50 12;" xml:space="preserve">
<style type="text/css">
	.st0{fill:#FFB429;}
	.st1{fill:#DC9717;}
	.st2{fill:#24C339;}
	.st3{fill:#13A328;}
	.st4{fill:#FF544D;}
	.st5{fill:#DD3F39;}
</style>
<g>
	<path class="st0" d="M25,11.5c-3,0-5.5-2.5-5.5-5.5S22,0.5,25,0.5S30.5,3,30.5,6S28,11.5,25,11.5z"/>
	<path class="st1" d="M25,1c2.8,0,5,2.2,5,5s-2.2,5-5,5s-5-2.2-5-5S22.2,1,25,1 M25,0c-3.3,0-6,2.7-6,6s2.7,6,6,6s6-2.7,6-6
		S28.3,0,25,0L25,0z"/>
</g>
<g>
	<path class="st2" d="M44,11.5c-3,0-5.5-2.5-5.5-5.5S41,0.5,44,0.5S49.5,3,49.5,6S47,11.5,44,11.5z"/>
	<path class="st3" d="M44,1c2.8,0,5,2.2,5,5s-2.2,5-5,5s-5-2.2-5-5S41.2,1,44,1 M44,0c-3.3,0-6,2.7-6,6s2.7,6,6,6s6-2.7,6-6
		S47.3,0,44,0L44,0z"/>
</g>
<g>
	<path class="st4" d="M6,11.5C3,11.5,0.5,9,0.5,6S3,0.5,6,0.5S11.5,3,11.5,6S9,11.5,6,11.5z"/>
	<path class="st5" d="M6,1c2.8,0,5,2.2,5,5s-2.2,5-5,5S1,8.8,1,6S3.2,1,6,1 M6,0C2.7,0,0,2.7,0,6s2.7,6,6,6s6-2.7,6-6S9.3,0,6,0L6,0
		z"/>
</g>
</svg>
