<?xml version="1.0" encoding="utf-8"?>
<!-- Generator: Adobe Illustrator 19.1.0, SVG Export Plug-In . SVG Version: 6.00 Build 0)  -->
<svg version="1.1" id="Layer_2" xmlns="http://www.w3.org/2000/svg" xmlns:xlink="http://www.w3.org/1999/xlink" x="0px" y="0px"
	 viewBox="-328 453 302 344" style="enable-background:new -328 453 302 344;" xml:space="preserve">
<style type="text/css">
	.st0{fill:#F7931E;}
	.st1{fill:#333333;}
</style>
<g>
	<rect x="-327" y="480.1" class="st0" width="300" height="293.8"/>
	<path class="st1" d="M-217.6,629.7h26.6l-13.3-51.6L-217.6,629.7z M-304.3,503.1v248h255v-248H-304.3L-304.3,503.1z M-176.4,686.2
		l-9.8-33.5h-35.9l-9.8,33.5h-24.7l34.7-118.5v-13h33l39.7,131.4h-27.2V686.2z M-110.8,686.2h-26.6v-100h26.6V686.2z M-124,574.2
		c-7.6,0-13.7-6.1-13.7-13.6s6.2-13.6,13.7-13.6s13.8,6.1,13.8,13.6C-110.2,568.1-116.4,574.2-124,574.2z"/>
</g>
</svg>
