<?xml version="1.0" encoding="utf-8"?>
<!-- Generator: Adobe Illustrator 19.1.0, SVG Export Plug-In . SVG Version: 6.00 Build 0)  -->
<svg version="1.1" id="all" xmlns="http://www.w3.org/2000/svg" xmlns:xlink="http://www.w3.org/1999/xlink" x="0px" y="0px"
	 viewBox="-304 456 302 344" style="enable-background:new -304 456 302 344;" xml:space="preserve">
<style type="text/css">
	.st0{fill:#C69C6D;}
	.st1{fill:#C7B299;}
	.st2{fill:#999999;}
</style>
<g id="kwast">
	<path class="st0" d="M-151,647.1L-4.6,477.9l1.6-5.7l-8.1-13l-12.5-2.1l-151.6,168.4c0.2,0.7,1.8,4.3,10.1,11.5
		c7.2,6.2,15.1,9,13.8,10.5L-151,647.1z"/>
	<path class="st1" d="M-271,736.6c-1-0.9-1.1-2.5-0.5-3.8c-4.2,4.1-32,31-31.4,33.7c1,5.3,22.6,40.2,31.2,30.8
		c3.9-4.2,27.2-35.3,27.2-35.3l-0.1-0.1l-0.1,0.1C-250.9,760.9-259.4,747.9-271,736.6z"/>
	<path class="st2" d="M-165.1,636.9c-9.3-7.9-10.1-11.5-10.1-11.5l-50.3,55.8l-45.5,51.1c-1,1.3-1,3.1,0.1,4.2
		c11.5,11.3,20.2,24.2,26.2,25.6l44.6-57.5L-151,647c0,0-0.2,0-0.2-0.2C-151.4,645.2-158.6,642.5-165.1,636.9z"/>
</g>
</svg>
