<?xml version="1.0" encoding="utf-8"?>
<!-- Generator: Adobe Illustrator 19.1.0, SVG Export Plug-In . SVG Version: 6.00 Build 0)  -->
<svg version="1.1" id="all" xmlns="http://www.w3.org/2000/svg" xmlns:xlink="http://www.w3.org/1999/xlink" x="0px" y="0px"
	 viewBox="-304 456 302 344" style="enable-background:new -304 456 302 344;" xml:space="preserve">
<style type="text/css">
	.st0{fill:#C7B299;}
	.st1{fill:#C69C6D;}
	.st2{fill:#999999;}
</style>
<g id="penseel">
	<path class="st0" d="M-3,476l-8.4-13.5l-12.9-2.1L-145,597.4c1.1,1.7,3.6,4.9,9.7,10.2c5.1,4.4,10.1,7.4,12.1,8.7L-4.6,482L-3,476z
		"/>
	<path class="st1" d="M-234.4,733c-4.8-2-10.5-7.1-13.4-13.1c-3.3,3.1-25.2,26.4-38.2,44.9c-10.7,15.4-14.5,25.3-16.9,30.1
		c-0.2,0.4,0.3,0.9,0.6,0.5c0,0,26.2-17.8,34.5-25.5c8.7-7.9,34.1-36.8,34.1-36.8l0,0C-233.9,733.1-234.1,733.1-234.4,733z"/>
	<path class="st2" d="M-135.4,607.5c-9.5-8.2-10.4-11.6-10.4-11.6s-2.1,2.1-3.5,4.2c-1.4,2.1-1.8,6.7-1.8,6.7s-4.7,3.2-6.1,4.6
		c-1.6,1.7-4,6.8-4,6.8l-86.8,98.6c-0.4,0.5-0.5,1.3-0.3,1.9c2.7,6.4,8.8,12,13.9,14.2c0.8,0.3,1.6,0.1,2.1-0.4l90.1-97.5
		c0,0,5.1-3.5,6.4-5c2-2.3,3.5-6.4,3.5-6.4s3.8-0.6,5.7-2.3c2.6-2.3,4.2-4.5,4.2-4.5S-128.6,613.3-135.4,607.5z"/>
</g>
</svg>
