<?xml version="1.0" encoding="utf-8"?>
<!-- Generator: Adobe Illustrator 19.1.0, SVG Export Plug-In . SVG Version: 6.00 Build 0)  -->
<svg version="1.1" id="all" xmlns="http://www.w3.org/2000/svg" xmlns:xlink="http://www.w3.org/1999/xlink" x="0px" y="0px"
	 viewBox="-304 456 302 344" style="enable-background:new -304 456 302 344;" xml:space="preserve">
<style type="text/css">
	.st0{fill:#006837;}
	.st1{fill:#666666;}
	.st2{fill:#999999;}
</style>
<g id="pen_2_">
	<path class="st0" d="M-11.5,462.6l-13-2.2l-217,241.8c0,0,5.6-0.7,16.1,8.2c7.5,6.4,9.9,14.9,10.2,15.4L-4.6,482.2l1.6-6
		L-11.5,462.6z"/>
	<path class="st1" d="M-242.2,727.8c-5.3-4.1-10.5-6.2-11.8-4.6c-0.5,0.8-0.2,2.2,1,3.9c-2.5,4.1-8.5,1.3-10.6,3.6
		c-2.9,3.1,0,3.1-2,7.3c-0.8,1.5-1.2,2-1.6,2.2c-1.6,0.9-6.3,3.4-6.5,3.6c-10.1,7.2-15.9,21.3-20.9,32.4
		c-5.2,11.5-8.4,19.2-8.4,19.2c0.9,1.4,3.3-3.4,12.7-9.9c8.4-5.7,19.8-11.8,22.8-13.3c5.9-3,11.4-5.7,11.7-10
		c0.1-1.6-0.4-4.9,1.1-5.7c0.8-0.4,1.6,0,2.2-0.5c1-1-0.5-2.6,0.2-4c0.9-1.7,4-0.2,7.4-2.2c0.7-0.3,3-1.7,3.6-4.1
		c0.5-2.1-0.8-3.3-0.2-6c0.2-0.9,0.5-1.6,0.9-2.2c2.8,1.4,5.1,1.7,5.9,0.8C-233.6,736.6-236.8,731.9-242.2,727.8z M-271.3,759.3
		c-0.3,0.5-3,2.6-4.7,4.6c-0.2,0.2-0.3,0.4-0.4,0.5c-0.1,0.2-0.2,0.4-0.3,0.7c-1.2,2.3-3.3,4-3.6,4.6c-0.8,1.1-2.5,1.8-2.9,1.6
		c-0.8-0.3-1.3-2.2-0.5-3.3c0.3-0.5,3-2.6,4.7-4.6c0.2-0.2,0.3-0.4,0.4-0.5c0.1-0.2,1.3-1.5,1.4-1.7c1.2-2.3,2.5-3.5,2.8-4
		c0.8-1.1,2.5-1.2,3.1-0.7C-270.6,757.1-270.6,758.2-271.3,759.3z M-259.3,735.3c-1.4,1.6-1.5,3.9-2.3,3.3c-0.8-0.7-0.2-2.5,1.3-4.1
		c1.4-1.6,3.3-2.4,4-1.7C-255.6,733.3-257.9,733.6-259.3,735.3z M-247.7,745.1c-1.6,1.8-4.1,2.3-5.6,0.9c-1.5-1.4,2.1-0.9,3.7-2.7
		c1.6-1.8,1.3-4.4,2.8-3.1C-245.3,741.5-246.1,743.3-247.7,745.1z"/>
	<path class="st2" d="M-225.5,710.3c-9.7-8.2-15.2-8.2-15.9-8.2h-0.1l-15.4,16.7c-1.2,1.5,0.3,4.9,3.6,8.8c0.1-0.2,0.3-0.3,0.4-0.5
		c-1.2-1.7-1.5-3.1-1-3.9c1.3-1.6,6.5,0.4,11.8,4.6c5.3,4.1,8.5,8.8,7.3,10.4c-0.8,1-3,0.5-5.9-0.8c-0.1,0.2-0.2,0.5-0.3,0.8
		c5.1,3.4,9.1,5.1,10.4,3.5l15.4-15.8C-215.7,725.2-218,716.8-225.5,710.3z"/>
</g>
</svg>
