<?xml version="1.0" encoding="utf-8"?>
<!-- Generator: Adobe Illustrator 19.1.0, SVG Export Plug-In . SVG Version: 6.00 Build 0)  -->
<svg version="1.1" id="all" xmlns="http://www.w3.org/2000/svg" xmlns:xlink="http://www.w3.org/1999/xlink" x="0px" y="0px"
	 viewBox="-304 456 302 344" style="enable-background:new -304 456 302 344;" xml:space="preserve">
<style type="text/css">
	.st0{fill:#FBB03B;}
	.st1{fill:#C7B299;}
	.st2{fill:#666666;}
</style>
<g id="pencil_2_">
	<path class="st0" d="M-11.4,461.1l-12.9-2.1l-231.3,257.6c0,0-4,7.8,0,10c2.6,1.4,12.9-4,12.9-4s-4.7,13.1-1.7,15.7
		c3,2.5,11.1-0.1,11.1-0.1s-0.9,5.8-0.1,6.9L-4.6,480.6l1.6-5.9L-11.4,461.1z"/>
	<path class="st1" d="M-293.3,778.2c0,0,4.2,2,5.2,3c1,0.9,2.4,4,2.4,4l52.4-40c-0.9-1.1,0.1-6.9,0.1-6.9s-8.1,2.6-11.1,0.1
		c-3-2.5,1.7-15.7,1.7-15.7s-10.3,5.4-12.9,4c-4-2.1,0-10,0-10L-293.3,778.2z"/>
	<path class="st2" d="M-285.9,785.1c0,0-1.4-3.1-2.4-4c-1-0.9-5.2-3-5.2-3l-9.6,15.7l1.3,3.2L-285.9,785.1L-285.9,785.1
		L-285.9,785.1z"/>
</g>
</svg>
