<?xml version="1.0" encoding="utf-8"?>
<!-- Generator: Adobe Illustrator 19.1.0, SVG Export Plug-In . SVG Version: 6.00 Build 0)  -->
<svg version="1.1" id="Livello_1" xmlns="http://www.w3.org/2000/svg" xmlns:xlink="http://www.w3.org/1999/xlink" x="0px" y="0px"
	 viewBox="-329 428 302 344" style="enable-background:new -329 428 302 344;" xml:space="preserve">
<style type="text/css">
	.st0{fill:#29ABE2;}
	.st1{fill:#1B1464;}
</style>
<g>
	<rect x="-328" y="452.5" class="st0" width="300" height="295"/>
	<rect x="-304.1" y="476" class="st1" width="252.3" height="248.1"/>
	<g>
		<path class="st0" d="M-255.5,535.6c0,0,19-0.5,34.6-0.5c15.8,0,27,3.7,34.6,10.2c7.2,6.2,12.1,16.7,12.1,28.6
			c0,12-3.7,21.8-10.4,28.6c-8.7,8.9-18.9,14.1-36.3,14.9c-4.8,0.2-9.2,0.2-9.2,0.2v38.9h-25.4L-255.5,535.6L-255.5,535.6z
			 M-230.2,596.2c2.8,0.3,4.5,0.1,8.6,0.1c13.6-0.2,22-8.4,22-20.9c0-11.2-6.9-20.5-20-20.9c-5.2-0.2-10.6,0-10.6,0V596.2z"/>
		<path class="st0" d="M-164.6,629.6c5.1,3.1,17.2,7.8,25.4,7.8c8.4,0,11.9-3,11.9-7.6c0-4.6-2.7-9.5-13.1-13
			c-18.4-6.3-25.6-13.8-25.4-24.3c0-17,14.2-29.7,36.3-29.7c10.4,0,18.7,3.4,24.2,6.2v20.4c-4-2.2-15.6-7.2-23.3-7.2
			c-6.8,0-10.6,2.8-10.6,7.4c0,4.2,3.5,6.5,14.4,10.3c17,5.9,24.1,14.6,24.3,27.9c0,16.8-13,30.2-38.7,29.4
			c-8.8-0.3-18.6-3.8-25.4-7.5L-164.6,629.6L-164.6,629.6z"/>
	</g>
</g>
</svg>
